<svg width="60" height="60" viewBox="0 0 60 60" fill="none" xmlns="http://www.w3.org/2000/svg">
<path d="M57.5 47.5C57.5 48.8261 56.9732 50.0979 56.0355 51.0355C55.0979 51.9732 53.8261 52.5 52.5 52.5H7.5C6.17392 52.5 4.90215 51.9732 3.96447 51.0355C3.02678 50.0979 2.5 48.8261 2.5 47.5V20C2.5 18.6739 3.02678 17.4021 3.96447 16.4645C4.90215 15.5268 6.17392 15 7.5 15H17.5L22.5 7.5H37.5L42.5 15H52.5C53.8261 15 55.0979 15.5268 56.0355 16.4645C56.9732 17.4021 57.5 18.6739 57.5 20V47.5Z" fill="#D9D9D9" stroke="black" stroke-width="2" stroke-linecap="round" stroke-linejoin="round"/>
<path d="M30.4161 23.3186L30.4161 23.3185C31.13 23 31.9512 23.1486 32.6154 23.7771L30.4161 23.3186ZM30.4161 23.3186L30.4108 23.3209M30.4161 23.3186L30.4108 23.3209M30.4108 23.3209C30.2468 23.3918 29.9859 23.5947 29.7168 23.8937C29.4541 24.1856 29.2371 24.5095 29.1312 24.7661L29.1312 24.7661M30.4108 23.3209L29.1312 24.7661M29.1312 24.7661L29.1299 24.7691M29.1312 24.7661L29.1299 24.7691M29.1299 24.7691C28.8041 25.5436 28.7804 26.4597 29.0123 27.284M29.1299 24.7691L29.0123 27.284M29.0123 27.284C29.2449 28.1109 29.7174 28.789 30.32 29.1399M29.0123 27.284L30.32 29.1399M30.32 29.1399C30.9658 29.5062 31.9049 29.4355 32.4794 28.9829C33.186 28.4233 33.5882 27.4706 33.617 26.4496C33.6457 25.4296 33.2986 24.4245 32.6156 23.7773L30.32 29.1399Z" fill="white" stroke="black"/>
<path d="M22.9919 30.7224L22.9925 30.723C23.3926 31.0964 23.7291 31.3308 24.0549 31.4761C24.3758 31.6192 24.7107 31.6867 25.1226 31.693C25.9052 31.7048 26.5005 31.3919 26.8638 30.8419C27.0142 30.6129 27.074 30.4884 27.1089 30.3451C27.1479 30.1855 27.1636 29.9717 27.1637 29.5494C27.1567 29.142 27.1357 28.9048 27.0872 28.7024C27.0399 28.5053 26.9604 28.3158 26.7996 28.0141C25.8618 26.324 24.1443 25.6537 22.8856 26.2202C22.182 26.5398 21.7948 27.2403 21.7902 28.1053C21.7857 28.9741 22.1768 29.9642 22.9919 30.7224Z" fill="white" stroke="black"/>
<path d="M35.079 28.9297L35.079 28.9297L35.0785 28.9312C34.7397 30.0032 35.0466 30.8344 35.5573 31.2602C36.0593 31.6787 36.867 31.7976 37.7555 31.2217C38.4992 30.7356 38.9719 29.9033 39.0967 29.0726C39.2226 28.2349 38.9861 27.511 38.4711 27.1322C38.3443 27.0419 38.0861 26.9512 37.7437 26.9149C37.4102 26.8795 37.0686 26.9038 36.8127 26.9798C36.5671 27.0543 36.1962 27.3177 35.8309 27.7213C35.4732 28.1166 35.192 28.568 35.079 28.9297Z" fill="white" stroke="black"/>
<path d="M32.1777 39.8052L32.1777 39.8052L32.1797 39.8042C32.5463 39.617 32.8444 39.4947 33.3326 39.479C33.7696 39.465 34.3648 39.5366 35.3344 39.6691C35.7687 39.7274 36.1011 39.7161 36.3766 39.6475C36.6463 39.5804 36.8874 39.4522 37.1314 39.2372L37.1321 39.2366C37.7054 38.7335 37.9956 38.0981 37.9956 37.1628C37.9956 36.1815 37.6063 35.3731 36.5758 34.4482L36.5741 34.4467C35.7334 33.6855 34.6358 33.0772 33.5018 32.7031C32.3654 32.3283 31.2309 32.201 30.315 32.3594C29.8832 32.44 29.3449 32.6411 28.8191 32.9157C28.2939 33.19 27.8156 33.5197 27.4926 33.8357C26.3659 34.9767 25.8274 36.4206 25.8274 38.6779C25.8274 40.1439 26.062 41.0336 26.4867 41.5606C26.8884 42.0591 27.5467 42.3338 28.6846 42.3407C29.376 42.3406 29.6654 42.2944 29.8883 42.1683C30.1222 42.0361 30.3498 41.7788 30.7878 41.1328C31.2047 40.5005 31.646 40.0797 32.1777 39.8052Z" fill="white" stroke="black"/>
<path d="M20.3153 32.7093L20.3132 32.7103C19.8656 32.9355 19.6202 33.2647 19.5149 33.6318C19.4063 34.0104 19.438 34.4646 19.618 34.9263C19.9802 35.8551 20.8994 36.7042 22.1298 36.8504L22.1312 36.8505C23.4071 37.0059 24.3282 35.9454 23.9949 34.701L23.9948 34.7007C23.7894 33.9319 23.1893 33.2587 22.4478 32.8668C21.7019 32.4727 20.906 32.4086 20.3153 32.7093Z" fill="white" stroke="black"/>
</svg>
